<svg width="64" height="64" xmlns="http://www.w3.org/2000/svg">

 <title/>
 <g>
  <title>background</title>
  <rect fill="none" id="canvas_background" height="402" width="582" y="-1" x="-1"/>
 </g>
 <g>
  <title>Layer 1</title>
  <path fill="#039be5" id="svg_1" d="m50,33a1,1 0 0 1 -1,-1a17,17 0 0 0 -28.76,-12.28a1,1 0 0 1 -1.38,-1.44a19,19 0 0 1 32.14,13.72a1,1 0 0 1 -1,1z" class="cls-1"/>
  <path fill="#039be5" id="svg_2" d="m32,51a19,19 0 0 1 -19,-19a1,1 0 0 1 2,0a17,17 0 0 0 28.76,12.28a1,1 0 1 1 1.38,1.44a18.88,18.88 0 0 1 -13.14,5.28z" class="cls-1"/>
  <path fill="#039be5" id="svg_3" d="m8,42a0.94,0.94 0 0 1 -0.55,-0.17a1,1 0 0 1 -0.28,-1.38l6,-9a1,1 0 0 1 1.49,-0.2l8,7a1,1 0 1 1 -1.32,1.5l-7.14,-6.25l-5.37,8a1,1 0 0 1 -0.83,0.5z" class="cls-1"/>
  <path fill="#039be5" id="svg_4" d="m50,33a1,1 0 0 1 -0.66,-0.25l-8,-7a1,1 0 0 1 1.32,-1.5l7.14,6.25l5.37,-8a1,1 0 1 1 1.66,1.1l-6,9a1,1 0 0 1 -0.7,0.44l-0.13,-0.04z" class="cls-1"/>
 </g>
</svg>